<?xml version="1.0" encoding="UTF-8"?>
<svg xmlns="http://www.w3.org/2000/svg" viewBox="0 0 1000 560" role="img" aria-labelledby="e37-title e37-desc">
<title id="e37-title">E37 what shapes can the fire model make</title>
<desc id="e37-desc">Six MAP-Elites archives, one per fire, over growth and elongation of the burned area after five days, with the observed fire's own growth and elongation marked day by day.</desc>
<defs><style>@import url('https://fonts.googleapis.com/css2?family=Geist:wght@400;500;600&amp;family=Geist+Mono:wght@400;500;600&amp;display=swap');</style></defs>
<rect width="100%" height="100%" fill="#f5f5f5"/>
<text x="56" y="40" fill="#2d3142" font-size="12" font-family="'Geist', sans-serif" font-weight="600" text-anchor="start" >Bear · 125 elites, coverage 0.31</text>
<rect x="88" y="48" width="232" height="160" fill="none" stroke="rgba(45,49,66,0.10)"/>
<rect x="88.0" y="160.0" width="11.6" height="8.0" fill="rgba(45,49,66,0.28)"/>
<rect x="88.0" y="152.0" width="11.6" height="8.0" fill="rgba(45,49,66,0.28)"/>
<rect x="88.0" y="144.0" width="11.6" height="8.0" fill="rgba(45,49,66,0.28)"/>
<rect x="99.6" y="176.0" width="11.6" height="8.0" fill="rgba(45,49,66,0.28)"/>
<rect x="99.6" y="160.0" width="11.6" height="8.0" fill="rgba(45,49,66,0.28)"/>
<rect x="99.6" y="152.0" width="11.6" height="8.0" fill="rgba(45,49,66,0.28)"/>
<rect x="99.6" y="144.0" width="11.6" height="8.0" fill="rgba(45,49,66,0.28)"/>
<rect x="99.6" y="136.0" width="11.6" height="8.0" fill="rgba(45,49,66,0.28)"/>
<rect x="99.6" y="128.0" width="11.6" height="8.0" fill="rgba(45,49,66,0.28)"/>
<rect x="99.6" y="120.0" width="11.6" height="8.0" fill="rgba(45,49,66,0.28)"/>
<rect x="111.2" y="176.0" width="11.6" height="8.0" fill="rgba(45,49,66,0.28)"/>
<rect x="111.2" y="168.0" width="11.6" height="8.0" fill="rgba(45,49,66,0.28)"/>
<rect x="111.2" y="160.0" width="11.6" height="8.0" fill="rgba(45,49,66,0.28)"/>
<rect x="111.2" y="152.0" width="11.6" height="8.0" fill="rgba(45,49,66,0.28)"/>
<rect x="111.2" y="144.0" width="11.6" height="8.0" fill="rgba(45,49,66,0.28)"/>
<rect x="111.2" y="136.0" width="11.6" height="8.0" fill="rgba(45,49,66,0.28)"/>
<rect x="111.2" y="128.0" width="11.6" height="8.0" fill="rgba(45,49,66,0.28)"/>
<rect x="111.2" y="120.0" width="11.6" height="8.0" fill="rgba(45,49,66,0.28)"/>
<rect x="111.2" y="112.0" width="11.6" height="8.0" fill="rgba(45,49,66,0.28)"/>
<rect x="111.2" y="104.0" width="11.6" height="8.0" fill="rgba(45,49,66,0.28)"/>
<rect x="111.2" y="96.0" width="11.6" height="8.0" fill="rgba(45,49,66,0.28)"/>
<rect x="122.8" y="176.0" width="11.6" height="8.0" fill="rgba(45,49,66,0.28)"/>
<rect x="122.8" y="168.0" width="11.6" height="8.0" fill="rgba(45,49,66,0.28)"/>
<rect x="122.8" y="160.0" width="11.6" height="8.0" fill="rgba(45,49,66,0.28)"/>
<rect x="122.8" y="152.0" width="11.6" height="8.0" fill="rgba(45,49,66,0.28)"/>
<rect x="122.8" y="144.0" width="11.6" height="8.0" fill="rgba(45,49,66,0.28)"/>
<rect x="122.8" y="136.0" width="11.6" height="8.0" fill="rgba(45,49,66,0.28)"/>
<rect x="122.8" y="128.0" width="11.6" height="8.0" fill="rgba(45,49,66,0.28)"/>
<rect x="122.8" y="120.0" width="11.6" height="8.0" fill="rgba(45,49,66,0.28)"/>
<rect x="122.8" y="112.0" width="11.6" height="8.0" fill="rgba(45,49,66,0.28)"/>
<rect x="122.8" y="96.0" width="11.6" height="8.0" fill="rgba(45,49,66,0.28)"/>
<rect x="122.8" y="88.0" width="11.6" height="8.0" fill="rgba(45,49,66,0.28)"/>
<rect x="134.4" y="184.0" width="11.6" height="8.0" fill="rgba(45,49,66,0.28)"/>
<rect x="134.4" y="176.0" width="11.6" height="8.0" fill="rgba(45,49,66,0.28)"/>
<rect x="134.4" y="168.0" width="11.6" height="8.0" fill="rgba(45,49,66,0.28)"/>
<rect x="134.4" y="160.0" width="11.6" height="8.0" fill="rgba(45,49,66,0.28)"/>
<rect x="134.4" y="152.0" width="11.6" height="8.0" fill="rgba(45,49,66,0.28)"/>
<rect x="134.4" y="144.0" width="11.6" height="8.0" fill="rgba(45,49,66,0.28)"/>
<rect x="134.4" y="136.0" width="11.6" height="8.0" fill="rgba(45,49,66,0.28)"/>
<rect x="134.4" y="128.0" width="11.6" height="8.0" fill="rgba(45,49,66,0.28)"/>
<rect x="134.4" y="112.0" width="11.6" height="8.0" fill="rgba(45,49,66,0.28)"/>
<rect x="134.4" y="96.0" width="11.6" height="8.0" fill="rgba(45,49,66,0.28)"/>
<rect x="146.0" y="184.0" width="11.6" height="8.0" fill="rgba(45,49,66,0.28)"/>
<rect x="146.0" y="176.0" width="11.6" height="8.0" fill="rgba(45,49,66,0.28)"/>
<rect x="146.0" y="168.0" width="11.6" height="8.0" fill="rgba(45,49,66,0.28)"/>
<rect x="146.0" y="160.0" width="11.6" height="8.0" fill="rgba(45,49,66,0.28)"/>
<rect x="146.0" y="152.0" width="11.6" height="8.0" fill="rgba(45,49,66,0.28)"/>
<rect x="146.0" y="144.0" width="11.6" height="8.0" fill="rgba(45,49,66,0.28)"/>
<rect x="146.0" y="128.0" width="11.6" height="8.0" fill="rgba(45,49,66,0.28)"/>
<rect x="146.0" y="112.0" width="11.6" height="8.0" fill="rgba(45,49,66,0.28)"/>
<rect x="157.6" y="184.0" width="11.6" height="8.0" fill="rgba(45,49,66,0.28)"/>
<rect x="157.6" y="176.0" width="11.6" height="8.0" fill="rgba(45,49,66,0.28)"/>
<rect x="157.6" y="168.0" width="11.6" height="8.0" fill="rgba(45,49,66,0.28)"/>
<rect x="157.6" y="160.0" width="11.6" height="8.0" fill="rgba(45,49,66,0.28)"/>
<rect x="157.6" y="152.0" width="11.6" height="8.0" fill="rgba(45,49,66,0.28)"/>
<rect x="157.6" y="144.0" width="11.6" height="8.0" fill="rgba(45,49,66,0.28)"/>
<rect x="169.2" y="184.0" width="11.6" height="8.0" fill="rgba(45,49,66,0.28)"/>
<rect x="169.2" y="176.0" width="11.6" height="8.0" fill="rgba(45,49,66,0.28)"/>
<rect x="169.2" y="168.0" width="11.6" height="8.0" fill="rgba(45,49,66,0.28)"/>
<rect x="169.2" y="160.0" width="11.6" height="8.0" fill="rgba(45,49,66,0.28)"/>
<rect x="169.2" y="152.0" width="11.6" height="8.0" fill="rgba(45,49,66,0.28)"/>
<rect x="169.2" y="144.0" width="11.6" height="8.0" fill="rgba(45,49,66,0.28)"/>
<rect x="180.8" y="192.0" width="11.6" height="8.0" fill="rgba(45,49,66,0.28)"/>
<rect x="180.8" y="184.0" width="11.6" height="8.0" fill="rgba(45,49,66,0.28)"/>
<rect x="180.8" y="176.0" width="11.6" height="8.0" fill="rgba(45,49,66,0.28)"/>
<rect x="180.8" y="168.0" width="11.6" height="8.0" fill="rgba(45,49,66,0.28)"/>
<rect x="180.8" y="160.0" width="11.6" height="8.0" fill="rgba(45,49,66,0.28)"/>
<rect x="180.8" y="152.0" width="11.6" height="8.0" fill="rgba(45,49,66,0.28)"/>
<rect x="192.4" y="192.0" width="11.6" height="8.0" fill="rgba(45,49,66,0.28)"/>
<rect x="192.4" y="184.0" width="11.6" height="8.0" fill="rgba(45,49,66,0.28)"/>
<rect x="192.4" y="176.0" width="11.6" height="8.0" fill="rgba(45,49,66,0.28)"/>
<rect x="192.4" y="168.0" width="11.6" height="8.0" fill="rgba(45,49,66,0.28)"/>
<rect x="192.4" y="160.0" width="11.6" height="8.0" fill="rgba(45,49,66,0.28)"/>
<rect x="192.4" y="152.0" width="11.6" height="8.0" fill="rgba(45,49,66,0.28)"/>
<rect x="204.0" y="192.0" width="11.6" height="8.0" fill="rgba(45,49,66,0.28)"/>
<rect x="204.0" y="184.0" width="11.6" height="8.0" fill="rgba(45,49,66,0.28)"/>
<rect x="204.0" y="176.0" width="11.6" height="8.0" fill="rgba(45,49,66,0.28)"/>
<rect x="204.0" y="168.0" width="11.6" height="8.0" fill="rgba(45,49,66,0.28)"/>
<rect x="204.0" y="160.0" width="11.6" height="8.0" fill="rgba(45,49,66,0.28)"/>
<rect x="204.0" y="152.0" width="11.6" height="8.0" fill="rgba(45,49,66,0.28)"/>
<rect x="215.6" y="184.0" width="11.6" height="8.0" fill="rgba(45,49,66,0.28)"/>
<rect x="215.6" y="176.0" width="11.6" height="8.0" fill="rgba(45,49,66,0.28)"/>
<rect x="215.6" y="168.0" width="11.6" height="8.0" fill="rgba(45,49,66,0.28)"/>
<rect x="215.6" y="160.0" width="11.6" height="8.0" fill="rgba(45,49,66,0.28)"/>
<rect x="215.6" y="152.0" width="11.6" height="8.0" fill="rgba(45,49,66,0.28)"/>
<rect x="227.2" y="192.0" width="11.6" height="8.0" fill="rgba(45,49,66,0.28)"/>
<rect x="227.2" y="184.0" width="11.6" height="8.0" fill="rgba(45,49,66,0.28)"/>
<rect x="227.2" y="176.0" width="11.6" height="8.0" fill="rgba(45,49,66,0.28)"/>
<rect x="227.2" y="168.0" width="11.6" height="8.0" fill="rgba(45,49,66,0.28)"/>
<rect x="227.2" y="160.0" width="11.6" height="8.0" fill="rgba(45,49,66,0.28)"/>
<rect x="227.2" y="152.0" width="11.6" height="8.0" fill="rgba(45,49,66,0.28)"/>
<rect x="238.8" y="184.0" width="11.6" height="8.0" fill="rgba(45,49,66,0.28)"/>
<rect x="238.8" y="176.0" width="11.6" height="8.0" fill="rgba(45,49,66,0.28)"/>
<rect x="238.8" y="168.0" width="11.6" height="8.0" fill="rgba(45,49,66,0.28)"/>
<rect x="238.8" y="160.0" width="11.6" height="8.0" fill="rgba(45,49,66,0.28)"/>
<rect x="238.8" y="152.0" width="11.6" height="8.0" fill="rgba(45,49,66,0.28)"/>
<rect x="250.4" y="192.0" width="11.6" height="8.0" fill="rgba(45,49,66,0.28)"/>
<rect x="250.4" y="184.0" width="11.6" height="8.0" fill="rgba(45,49,66,0.28)"/>
<rect x="250.4" y="176.0" width="11.6" height="8.0" fill="rgba(45,49,66,0.28)"/>
<rect x="250.4" y="168.0" width="11.6" height="8.0" fill="rgba(45,49,66,0.28)"/>
<rect x="250.4" y="160.0" width="11.6" height="8.0" fill="rgba(45,49,66,0.28)"/>
<rect x="262.0" y="192.0" width="11.6" height="8.0" fill="rgba(45,49,66,0.28)"/>
<rect x="262.0" y="184.0" width="11.6" height="8.0" fill="rgba(45,49,66,0.28)"/>
<rect x="262.0" y="176.0" width="11.6" height="8.0" fill="rgba(45,49,66,0.28)"/>
<rect x="262.0" y="168.0" width="11.6" height="8.0" fill="rgba(45,49,66,0.28)"/>
<rect x="262.0" y="160.0" width="11.6" height="8.0" fill="rgba(45,49,66,0.28)"/>
<rect x="273.6" y="192.0" width="11.6" height="8.0" fill="rgba(45,49,66,0.28)"/>
<rect x="273.6" y="184.0" width="11.6" height="8.0" fill="rgba(45,49,66,0.28)"/>
<rect x="273.6" y="176.0" width="11.6" height="8.0" fill="rgba(45,49,66,0.28)"/>
<rect x="273.6" y="168.0" width="11.6" height="8.0" fill="rgba(45,49,66,0.28)"/>
<rect x="273.6" y="160.0" width="11.6" height="8.0" fill="rgba(45,49,66,0.28)"/>
<rect x="285.2" y="192.0" width="11.6" height="8.0" fill="rgba(45,49,66,0.28)"/>
<rect x="285.2" y="184.0" width="11.6" height="8.0" fill="rgba(45,49,66,0.28)"/>
<rect x="285.2" y="176.0" width="11.6" height="8.0" fill="rgba(45,49,66,0.28)"/>
<rect x="285.2" y="168.0" width="11.6" height="8.0" fill="rgba(45,49,66,0.28)"/>
<rect x="296.8" y="192.0" width="11.6" height="8.0" fill="rgba(45,49,66,0.28)"/>
<rect x="296.8" y="184.0" width="11.6" height="8.0" fill="rgba(45,49,66,0.28)"/>
<rect x="296.8" y="176.0" width="11.6" height="8.0" fill="rgba(45,49,66,0.28)"/>
<rect x="296.8" y="168.0" width="11.6" height="8.0" fill="rgba(45,49,66,0.28)"/>
<rect x="296.8" y="160.0" width="11.6" height="8.0" fill="rgba(45,49,66,0.28)"/>
<rect x="308.4" y="200.0" width="11.6" height="8.0" fill="rgba(45,49,66,0.28)"/>
<rect x="308.4" y="192.0" width="11.6" height="8.0" fill="rgba(45,49,66,0.28)"/>
<rect x="308.4" y="184.0" width="11.6" height="8.0" fill="rgba(45,49,66,0.28)"/>
<rect x="308.4" y="176.0" width="11.6" height="8.0" fill="rgba(45,49,66,0.28)"/>
<rect x="308.4" y="168.0" width="11.6" height="8.0" fill="rgba(45,49,66,0.28)"/>
<circle cx="102.1" cy="188.3" r="4" fill="#f5f5f5"/><circle cx="102.1" cy="188.3" r="4" fill="rgba(235,108,54,0.15)" stroke="#eb6c36" stroke-width="1.2"/>
<circle cx="118.5" cy="194.1" r="4" fill="#f5f5f5"/><circle cx="118.5" cy="194.1" r="4" fill="rgba(235,108,54,0.15)" stroke="#eb6c36" stroke-width="1.2"/>
<circle cx="140.7" cy="160.9" r="4" fill="#f5f5f5"/><circle cx="140.7" cy="160.9" r="4" fill="rgba(235,108,54,0.15)" stroke="#eb6c36" stroke-width="1.2"/>
<circle cx="156.8" cy="163.0" r="4" fill="#f5f5f5"/><circle cx="156.8" cy="163.0" r="4" fill="rgba(235,108,54,0.15)" stroke="#eb6c36" stroke-width="1.2"/>
<circle cx="196.4" cy="155.7" r="4" fill="#f5f5f5"/><circle cx="196.4" cy="155.7" r="4" fill="rgba(235,108,54,0.15)" stroke="#eb6c36" stroke-width="1.2"/>
<text x="88" y="224" fill="#4f5d75" font-size="8" font-family="'Geist Mono', monospace" font-weight="400" text-anchor="start" >0.00</text>
<text x="320" y="224" fill="#4f5d75" font-size="8" font-family="'Geist Mono', monospace" font-weight="400" text-anchor="end" >growth 0.10</text>
<text x="84" y="208" fill="#4f5d75" font-size="8" font-family="'Geist Mono', monospace" font-weight="400" text-anchor="end" >1</text>
<text x="84" y="56" fill="#4f5d75" font-size="8" font-family="'Geist Mono', monospace" font-weight="400" text-anchor="end" >4</text>
<text x="84" y="128.0" fill="#4f5d75" font-size="8" font-family="'Geist Mono', monospace" font-weight="400" text-anchor="end" >elong.</text>
<text x="376" y="40" fill="#2d3142" font-size="12" font-family="'Geist', sans-serif" font-weight="600" text-anchor="start" >Brattain · 112 elites, coverage 0.28</text>
<rect x="408" y="48" width="232" height="160" fill="none" stroke="rgba(45,49,66,0.10)"/>
<rect x="408.0" y="104.0" width="11.6" height="8.0" fill="rgba(45,49,66,0.28)"/>
<rect x="408.0" y="96.0" width="11.6" height="8.0" fill="rgba(45,49,66,0.28)"/>
<rect x="408.0" y="88.0" width="11.6" height="8.0" fill="rgba(45,49,66,0.28)"/>
<rect x="408.0" y="80.0" width="11.6" height="8.0" fill="rgba(45,49,66,0.28)"/>
<rect x="408.0" y="72.0" width="11.6" height="8.0" fill="rgba(45,49,66,0.28)"/>
<rect x="408.0" y="64.0" width="11.6" height="8.0" fill="rgba(45,49,66,0.28)"/>
<rect x="408.0" y="56.0" width="11.6" height="8.0" fill="rgba(45,49,66,0.28)"/>
<rect x="408.0" y="48.0" width="11.6" height="8.0" fill="rgba(45,49,66,0.28)"/>
<rect x="419.6" y="168.0" width="11.6" height="8.0" fill="rgba(45,49,66,0.28)"/>
<rect x="419.6" y="152.0" width="11.6" height="8.0" fill="rgba(45,49,66,0.28)"/>
<rect x="419.6" y="144.0" width="11.6" height="8.0" fill="rgba(45,49,66,0.28)"/>
<rect x="419.6" y="136.0" width="11.6" height="8.0" fill="rgba(45,49,66,0.28)"/>
<rect x="419.6" y="128.0" width="11.6" height="8.0" fill="rgba(45,49,66,0.28)"/>
<rect x="419.6" y="120.0" width="11.6" height="8.0" fill="rgba(45,49,66,0.28)"/>
<rect x="419.6" y="112.0" width="11.6" height="8.0" fill="rgba(45,49,66,0.28)"/>
<rect x="419.6" y="104.0" width="11.6" height="8.0" fill="rgba(45,49,66,0.28)"/>
<rect x="419.6" y="96.0" width="11.6" height="8.0" fill="rgba(45,49,66,0.28)"/>
<rect x="419.6" y="88.0" width="11.6" height="8.0" fill="rgba(45,49,66,0.28)"/>
<rect x="419.6" y="80.0" width="11.6" height="8.0" fill="rgba(45,49,66,0.28)"/>
<rect x="419.6" y="72.0" width="11.6" height="8.0" fill="rgba(45,49,66,0.28)"/>
<rect x="419.6" y="64.0" width="11.6" height="8.0" fill="rgba(45,49,66,0.28)"/>
<rect x="419.6" y="56.0" width="11.6" height="8.0" fill="rgba(45,49,66,0.28)"/>
<rect x="419.6" y="48.0" width="11.6" height="8.0" fill="rgba(45,49,66,0.28)"/>
<rect x="431.2" y="176.0" width="11.6" height="8.0" fill="rgba(45,49,66,0.28)"/>
<rect x="431.2" y="168.0" width="11.6" height="8.0" fill="rgba(45,49,66,0.28)"/>
<rect x="431.2" y="152.0" width="11.6" height="8.0" fill="rgba(45,49,66,0.28)"/>
<rect x="431.2" y="144.0" width="11.6" height="8.0" fill="rgba(45,49,66,0.28)"/>
<rect x="431.2" y="136.0" width="11.6" height="8.0" fill="rgba(45,49,66,0.28)"/>
<rect x="431.2" y="128.0" width="11.6" height="8.0" fill="rgba(45,49,66,0.28)"/>
<rect x="431.2" y="120.0" width="11.6" height="8.0" fill="rgba(45,49,66,0.28)"/>
<rect x="431.2" y="112.0" width="11.6" height="8.0" fill="rgba(45,49,66,0.28)"/>
<rect x="431.2" y="104.0" width="11.6" height="8.0" fill="rgba(45,49,66,0.28)"/>
<rect x="431.2" y="96.0" width="11.6" height="8.0" fill="rgba(45,49,66,0.28)"/>
<rect x="431.2" y="88.0" width="11.6" height="8.0" fill="rgba(45,49,66,0.28)"/>
<rect x="431.2" y="80.0" width="11.6" height="8.0" fill="rgba(45,49,66,0.28)"/>
<rect x="431.2" y="72.0" width="11.6" height="8.0" fill="rgba(45,49,66,0.28)"/>
<rect x="431.2" y="56.0" width="11.6" height="8.0" fill="rgba(45,49,66,0.28)"/>
<rect x="431.2" y="48.0" width="11.6" height="8.0" fill="rgba(45,49,66,0.28)"/>
<rect x="442.8" y="184.0" width="11.6" height="8.0" fill="rgba(45,49,66,0.28)"/>
<rect x="442.8" y="176.0" width="11.6" height="8.0" fill="rgba(45,49,66,0.28)"/>
<rect x="442.8" y="168.0" width="11.6" height="8.0" fill="rgba(45,49,66,0.28)"/>
<rect x="442.8" y="160.0" width="11.6" height="8.0" fill="rgba(45,49,66,0.28)"/>
<rect x="442.8" y="152.0" width="11.6" height="8.0" fill="rgba(45,49,66,0.28)"/>
<rect x="442.8" y="144.0" width="11.6" height="8.0" fill="rgba(45,49,66,0.28)"/>
<rect x="442.8" y="136.0" width="11.6" height="8.0" fill="rgba(45,49,66,0.28)"/>
<rect x="442.8" y="128.0" width="11.6" height="8.0" fill="rgba(45,49,66,0.28)"/>
<rect x="442.8" y="120.0" width="11.6" height="8.0" fill="rgba(45,49,66,0.28)"/>
<rect x="442.8" y="112.0" width="11.6" height="8.0" fill="rgba(45,49,66,0.28)"/>
<rect x="442.8" y="104.0" width="11.6" height="8.0" fill="rgba(45,49,66,0.28)"/>
<rect x="442.8" y="96.0" width="11.6" height="8.0" fill="rgba(45,49,66,0.28)"/>
<rect x="442.8" y="88.0" width="11.6" height="8.0" fill="rgba(45,49,66,0.28)"/>
<rect x="442.8" y="80.0" width="11.6" height="8.0" fill="rgba(45,49,66,0.28)"/>
<rect x="442.8" y="64.0" width="11.6" height="8.0" fill="rgba(45,49,66,0.28)"/>
<rect x="442.8" y="48.0" width="11.6" height="8.0" fill="rgba(45,49,66,0.28)"/>
<rect x="454.4" y="176.0" width="11.6" height="8.0" fill="rgba(45,49,66,0.28)"/>
<rect x="454.4" y="168.0" width="11.6" height="8.0" fill="rgba(45,49,66,0.28)"/>
<rect x="454.4" y="160.0" width="11.6" height="8.0" fill="rgba(45,49,66,0.28)"/>
<rect x="454.4" y="152.0" width="11.6" height="8.0" fill="rgba(45,49,66,0.28)"/>
<rect x="454.4" y="144.0" width="11.6" height="8.0" fill="rgba(45,49,66,0.28)"/>
<rect x="454.4" y="136.0" width="11.6" height="8.0" fill="rgba(45,49,66,0.28)"/>
<rect x="454.4" y="128.0" width="11.6" height="8.0" fill="rgba(45,49,66,0.28)"/>
<rect x="454.4" y="120.0" width="11.6" height="8.0" fill="rgba(45,49,66,0.28)"/>
<rect x="454.4" y="112.0" width="11.6" height="8.0" fill="rgba(45,49,66,0.28)"/>
<rect x="454.4" y="88.0" width="11.6" height="8.0" fill="rgba(45,49,66,0.28)"/>
<rect x="466.0" y="176.0" width="11.6" height="8.0" fill="rgba(45,49,66,0.28)"/>
<rect x="466.0" y="168.0" width="11.6" height="8.0" fill="rgba(45,49,66,0.28)"/>
<rect x="466.0" y="160.0" width="11.6" height="8.0" fill="rgba(45,49,66,0.28)"/>
<rect x="466.0" y="152.0" width="11.6" height="8.0" fill="rgba(45,49,66,0.28)"/>
<rect x="466.0" y="144.0" width="11.6" height="8.0" fill="rgba(45,49,66,0.28)"/>
<rect x="466.0" y="136.0" width="11.6" height="8.0" fill="rgba(45,49,66,0.28)"/>
<rect x="466.0" y="128.0" width="11.6" height="8.0" fill="rgba(45,49,66,0.28)"/>
<rect x="466.0" y="120.0" width="11.6" height="8.0" fill="rgba(45,49,66,0.28)"/>
<rect x="466.0" y="104.0" width="11.6" height="8.0" fill="rgba(45,49,66,0.28)"/>
<rect x="477.6" y="168.0" width="11.6" height="8.0" fill="rgba(45,49,66,0.28)"/>
<rect x="477.6" y="160.0" width="11.6" height="8.0" fill="rgba(45,49,66,0.28)"/>
<rect x="477.6" y="152.0" width="11.6" height="8.0" fill="rgba(45,49,66,0.28)"/>
<rect x="477.6" y="144.0" width="11.6" height="8.0" fill="rgba(45,49,66,0.28)"/>
<rect x="489.2" y="168.0" width="11.6" height="8.0" fill="rgba(45,49,66,0.28)"/>
<rect x="489.2" y="160.0" width="11.6" height="8.0" fill="rgba(45,49,66,0.28)"/>
<rect x="489.2" y="152.0" width="11.6" height="8.0" fill="rgba(45,49,66,0.28)"/>
<rect x="489.2" y="144.0" width="11.6" height="8.0" fill="rgba(45,49,66,0.28)"/>
<rect x="489.2" y="136.0" width="11.6" height="8.0" fill="rgba(45,49,66,0.28)"/>
<rect x="500.8" y="160.0" width="11.6" height="8.0" fill="rgba(45,49,66,0.28)"/>
<rect x="500.8" y="152.0" width="11.6" height="8.0" fill="rgba(45,49,66,0.28)"/>
<rect x="500.8" y="144.0" width="11.6" height="8.0" fill="rgba(45,49,66,0.28)"/>
<rect x="512.4" y="168.0" width="11.6" height="8.0" fill="rgba(45,49,66,0.28)"/>
<rect x="512.4" y="160.0" width="11.6" height="8.0" fill="rgba(45,49,66,0.28)"/>
<rect x="512.4" y="152.0" width="11.6" height="8.0" fill="rgba(45,49,66,0.28)"/>
<rect x="524.0" y="168.0" width="11.6" height="8.0" fill="rgba(45,49,66,0.28)"/>
<rect x="524.0" y="160.0" width="11.6" height="8.0" fill="rgba(45,49,66,0.28)"/>
<rect x="524.0" y="152.0" width="11.6" height="8.0" fill="rgba(45,49,66,0.28)"/>
<rect x="535.6" y="176.0" width="11.6" height="8.0" fill="rgba(45,49,66,0.28)"/>
<rect x="535.6" y="168.0" width="11.6" height="8.0" fill="rgba(45,49,66,0.28)"/>
<rect x="535.6" y="160.0" width="11.6" height="8.0" fill="rgba(45,49,66,0.28)"/>
<rect x="535.6" y="152.0" width="11.6" height="8.0" fill="rgba(45,49,66,0.28)"/>
<rect x="547.2" y="168.0" width="11.6" height="8.0" fill="rgba(45,49,66,0.28)"/>
<rect x="547.2" y="160.0" width="11.6" height="8.0" fill="rgba(45,49,66,0.28)"/>
<rect x="558.8" y="176.0" width="11.6" height="8.0" fill="rgba(45,49,66,0.28)"/>
<rect x="558.8" y="168.0" width="11.6" height="8.0" fill="rgba(45,49,66,0.28)"/>
<rect x="558.8" y="160.0" width="11.6" height="8.0" fill="rgba(45,49,66,0.28)"/>
<rect x="570.4" y="176.0" width="11.6" height="8.0" fill="rgba(45,49,66,0.28)"/>
<rect x="570.4" y="168.0" width="11.6" height="8.0" fill="rgba(45,49,66,0.28)"/>
<rect x="582.0" y="176.0" width="11.6" height="8.0" fill="rgba(45,49,66,0.28)"/>
<rect x="582.0" y="168.0" width="11.6" height="8.0" fill="rgba(45,49,66,0.28)"/>
<rect x="593.6" y="176.0" width="11.6" height="8.0" fill="rgba(45,49,66,0.28)"/>
<rect x="593.6" y="168.0" width="11.6" height="8.0" fill="rgba(45,49,66,0.28)"/>
<rect x="605.2" y="176.0" width="11.6" height="8.0" fill="rgba(45,49,66,0.28)"/>
<rect x="616.8" y="184.0" width="11.6" height="8.0" fill="rgba(45,49,66,0.28)"/>
<rect x="616.8" y="176.0" width="11.6" height="8.0" fill="rgba(45,49,66,0.28)"/>
<rect x="628.4" y="192.0" width="11.6" height="8.0" fill="rgba(45,49,66,0.28)"/>
<rect x="628.4" y="184.0" width="11.6" height="8.0" fill="rgba(45,49,66,0.28)"/>
<rect x="628.4" y="176.0" width="11.6" height="8.0" fill="rgba(45,49,66,0.28)"/>
<circle cx="435.2" cy="161.9" r="4" fill="#f5f5f5"/><circle cx="435.2" cy="161.9" r="4" fill="rgba(235,108,54,0.15)" stroke="#eb6c36" stroke-width="1.2"/>
<circle cx="463.7" cy="196.8" r="4" fill="#f5f5f5"/><circle cx="463.7" cy="196.8" r="4" fill="rgba(235,108,54,0.15)" stroke="#eb6c36" stroke-width="1.2"/>
<circle cx="503.4" cy="186.7" r="4" fill="#f5f5f5"/><circle cx="503.4" cy="186.7" r="4" fill="rgba(235,108,54,0.15)" stroke="#eb6c36" stroke-width="1.2"/>
<circle cx="562.5" cy="175.5" r="4" fill="#f5f5f5"/><circle cx="562.5" cy="175.5" r="4" fill="rgba(235,108,54,0.15)" stroke="#eb6c36" stroke-width="1.2"/>
<circle cx="640.0" cy="163.7" r="4" fill="#f5f5f5"/><circle cx="640.0" cy="163.7" r="4" fill="rgba(235,108,54,0.15)" stroke="#eb6c36" stroke-width="1.2"/>
<text x="408" y="224" fill="#4f5d75" font-size="8" font-family="'Geist Mono', monospace" font-weight="400" text-anchor="start" >0.00</text>
<text x="640" y="224" fill="#4f5d75" font-size="8" font-family="'Geist Mono', monospace" font-weight="400" text-anchor="end" >growth 0.10</text>
<text x="404" y="208" fill="#4f5d75" font-size="8" font-family="'Geist Mono', monospace" font-weight="400" text-anchor="end" >1</text>
<text x="404" y="56" fill="#4f5d75" font-size="8" font-family="'Geist Mono', monospace" font-weight="400" text-anchor="end" >4</text>
<text x="404" y="128.0" fill="#4f5d75" font-size="8" font-family="'Geist Mono', monospace" font-weight="400" text-anchor="end" >elong.</text>
<text x="696" y="40" fill="#2d3142" font-size="12" font-family="'Geist', sans-serif" font-weight="600" text-anchor="start" >Buck · 60 elites, coverage 0.15</text>
<rect x="728" y="48" width="232" height="160" fill="none" stroke="rgba(45,49,66,0.10)"/>
<rect x="751.2" y="184.0" width="11.6" height="8.0" fill="rgba(45,49,66,0.28)"/>
<rect x="751.2" y="176.0" width="11.6" height="8.0" fill="rgba(45,49,66,0.28)"/>
<rect x="751.2" y="168.0" width="11.6" height="8.0" fill="rgba(45,49,66,0.28)"/>
<rect x="762.8" y="192.0" width="11.6" height="8.0" fill="rgba(45,49,66,0.28)"/>
<rect x="762.8" y="184.0" width="11.6" height="8.0" fill="rgba(45,49,66,0.28)"/>
<rect x="762.8" y="176.0" width="11.6" height="8.0" fill="rgba(45,49,66,0.28)"/>
<rect x="762.8" y="168.0" width="11.6" height="8.0" fill="rgba(45,49,66,0.28)"/>
<rect x="774.4" y="184.0" width="11.6" height="8.0" fill="rgba(45,49,66,0.28)"/>
<rect x="774.4" y="176.0" width="11.6" height="8.0" fill="rgba(45,49,66,0.28)"/>
<rect x="774.4" y="168.0" width="11.6" height="8.0" fill="rgba(45,49,66,0.28)"/>
<rect x="786.0" y="184.0" width="11.6" height="8.0" fill="rgba(45,49,66,0.28)"/>
<rect x="786.0" y="176.0" width="11.6" height="8.0" fill="rgba(45,49,66,0.28)"/>
<rect x="786.0" y="168.0" width="11.6" height="8.0" fill="rgba(45,49,66,0.28)"/>
<rect x="797.6" y="184.0" width="11.6" height="8.0" fill="rgba(45,49,66,0.28)"/>
<rect x="797.6" y="176.0" width="11.6" height="8.0" fill="rgba(45,49,66,0.28)"/>
<rect x="797.6" y="168.0" width="11.6" height="8.0" fill="rgba(45,49,66,0.28)"/>
<rect x="797.6" y="160.0" width="11.6" height="8.0" fill="rgba(45,49,66,0.28)"/>
<rect x="797.6" y="152.0" width="11.6" height="8.0" fill="rgba(45,49,66,0.28)"/>
<rect x="809.2" y="192.0" width="11.6" height="8.0" fill="rgba(45,49,66,0.28)"/>
<rect x="809.2" y="184.0" width="11.6" height="8.0" fill="rgba(45,49,66,0.28)"/>
<rect x="809.2" y="176.0" width="11.6" height="8.0" fill="rgba(45,49,66,0.28)"/>
<rect x="809.2" y="168.0" width="11.6" height="8.0" fill="rgba(45,49,66,0.28)"/>
<rect x="820.8" y="192.0" width="11.6" height="8.0" fill="rgba(45,49,66,0.28)"/>
<rect x="820.8" y="184.0" width="11.6" height="8.0" fill="rgba(45,49,66,0.28)"/>
<rect x="820.8" y="176.0" width="11.6" height="8.0" fill="rgba(45,49,66,0.28)"/>
<rect x="820.8" y="168.0" width="11.6" height="8.0" fill="rgba(45,49,66,0.28)"/>
<rect x="832.4" y="192.0" width="11.6" height="8.0" fill="rgba(45,49,66,0.28)"/>
<rect x="832.4" y="184.0" width="11.6" height="8.0" fill="rgba(45,49,66,0.28)"/>
<rect x="832.4" y="176.0" width="11.6" height="8.0" fill="rgba(45,49,66,0.28)"/>
<rect x="844.0" y="192.0" width="11.6" height="8.0" fill="rgba(45,49,66,0.28)"/>
<rect x="844.0" y="184.0" width="11.6" height="8.0" fill="rgba(45,49,66,0.28)"/>
<rect x="844.0" y="176.0" width="11.6" height="8.0" fill="rgba(45,49,66,0.28)"/>
<rect x="855.6" y="192.0" width="11.6" height="8.0" fill="rgba(45,49,66,0.28)"/>
<rect x="855.6" y="184.0" width="11.6" height="8.0" fill="rgba(45,49,66,0.28)"/>
<rect x="855.6" y="176.0" width="11.6" height="8.0" fill="rgba(45,49,66,0.28)"/>
<rect x="867.2" y="192.0" width="11.6" height="8.0" fill="rgba(45,49,66,0.28)"/>
<rect x="867.2" y="184.0" width="11.6" height="8.0" fill="rgba(45,49,66,0.28)"/>
<rect x="867.2" y="176.0" width="11.6" height="8.0" fill="rgba(45,49,66,0.28)"/>
<rect x="878.8" y="192.0" width="11.6" height="8.0" fill="rgba(45,49,66,0.28)"/>
<rect x="878.8" y="184.0" width="11.6" height="8.0" fill="rgba(45,49,66,0.28)"/>
<rect x="878.8" y="176.0" width="11.6" height="8.0" fill="rgba(45,49,66,0.28)"/>
<rect x="890.4" y="200.0" width="11.6" height="8.0" fill="rgba(45,49,66,0.28)"/>
<rect x="890.4" y="192.0" width="11.6" height="8.0" fill="rgba(45,49,66,0.28)"/>
<rect x="890.4" y="184.0" width="11.6" height="8.0" fill="rgba(45,49,66,0.28)"/>
<rect x="890.4" y="176.0" width="11.6" height="8.0" fill="rgba(45,49,66,0.28)"/>
<rect x="902.0" y="200.0" width="11.6" height="8.0" fill="rgba(45,49,66,0.28)"/>
<rect x="902.0" y="192.0" width="11.6" height="8.0" fill="rgba(45,49,66,0.28)"/>
<rect x="902.0" y="184.0" width="11.6" height="8.0" fill="rgba(45,49,66,0.28)"/>
<rect x="913.6" y="200.0" width="11.6" height="8.0" fill="rgba(45,49,66,0.28)"/>
<rect x="913.6" y="192.0" width="11.6" height="8.0" fill="rgba(45,49,66,0.28)"/>
<rect x="913.6" y="184.0" width="11.6" height="8.0" fill="rgba(45,49,66,0.28)"/>
<rect x="925.2" y="200.0" width="11.6" height="8.0" fill="rgba(45,49,66,0.28)"/>
<rect x="925.2" y="192.0" width="11.6" height="8.0" fill="rgba(45,49,66,0.28)"/>
<rect x="925.2" y="184.0" width="11.6" height="8.0" fill="rgba(45,49,66,0.28)"/>
<rect x="936.8" y="200.0" width="11.6" height="8.0" fill="rgba(45,49,66,0.28)"/>
<rect x="936.8" y="192.0" width="11.6" height="8.0" fill="rgba(45,49,66,0.28)"/>
<rect x="936.8" y="184.0" width="11.6" height="8.0" fill="rgba(45,49,66,0.28)"/>
<rect x="948.4" y="200.0" width="11.6" height="8.0" fill="rgba(45,49,66,0.28)"/>
<rect x="948.4" y="192.0" width="11.6" height="8.0" fill="rgba(45,49,66,0.28)"/>
<rect x="948.4" y="184.0" width="11.6" height="8.0" fill="rgba(45,49,66,0.28)"/>
<circle cx="774.7" cy="192.6" r="4" fill="#f5f5f5"/><circle cx="774.7" cy="192.6" r="4" fill="rgba(235,108,54,0.15)" stroke="#eb6c36" stroke-width="1.2"/>
<circle cx="808.7" cy="181.1" r="4" fill="#f5f5f5"/><circle cx="808.7" cy="181.1" r="4" fill="rgba(235,108,54,0.15)" stroke="#eb6c36" stroke-width="1.2"/>
<circle cx="828.5" cy="178.2" r="4" fill="#f5f5f5"/><circle cx="828.5" cy="178.2" r="4" fill="rgba(235,108,54,0.15)" stroke="#eb6c36" stroke-width="1.2"/>
<circle cx="854.1" cy="180.1" r="4" fill="#f5f5f5"/><circle cx="854.1" cy="180.1" r="4" fill="rgba(235,108,54,0.15)" stroke="#eb6c36" stroke-width="1.2"/>
<circle cx="861.6" cy="181.2" r="4" fill="#f5f5f5"/><circle cx="861.6" cy="181.2" r="4" fill="rgba(235,108,54,0.15)" stroke="#eb6c36" stroke-width="1.2"/>
<text x="728" y="224" fill="#4f5d75" font-size="8" font-family="'Geist Mono', monospace" font-weight="400" text-anchor="start" >0.00</text>
<text x="960" y="224" fill="#4f5d75" font-size="8" font-family="'Geist Mono', monospace" font-weight="400" text-anchor="end" >growth 0.10</text>
<text x="724" y="208" fill="#4f5d75" font-size="8" font-family="'Geist Mono', monospace" font-weight="400" text-anchor="end" >1</text>
<text x="724" y="56" fill="#4f5d75" font-size="8" font-family="'Geist Mono', monospace" font-weight="400" text-anchor="end" >4</text>
<text x="724" y="128.0" fill="#4f5d75" font-size="8" font-family="'Geist Mono', monospace" font-weight="400" text-anchor="end" >elong.</text>
<text x="56" y="280" fill="#2d3142" font-size="12" font-family="'Geist', sans-serif" font-weight="600" text-anchor="start" >Chimney · 48 elites, coverage 0.12</text>
<rect x="88" y="288" width="232" height="160" fill="none" stroke="rgba(45,49,66,0.10)"/>
<rect x="88.0" y="440.0" width="11.6" height="8.0" fill="rgba(45,49,66,0.28)"/>
<rect x="88.0" y="432.0" width="11.6" height="8.0" fill="rgba(45,49,66,0.28)"/>
<rect x="99.6" y="440.0" width="11.6" height="8.0" fill="rgba(45,49,66,0.28)"/>
<rect x="99.6" y="432.0" width="11.6" height="8.0" fill="rgba(45,49,66,0.28)"/>
<rect x="99.6" y="424.0" width="11.6" height="8.0" fill="rgba(45,49,66,0.28)"/>
<rect x="111.2" y="440.0" width="11.6" height="8.0" fill="rgba(45,49,66,0.28)"/>
<rect x="111.2" y="432.0" width="11.6" height="8.0" fill="rgba(45,49,66,0.28)"/>
<rect x="111.2" y="424.0" width="11.6" height="8.0" fill="rgba(45,49,66,0.28)"/>
<rect x="111.2" y="416.0" width="11.6" height="8.0" fill="rgba(45,49,66,0.28)"/>
<rect x="122.8" y="440.0" width="11.6" height="8.0" fill="rgba(45,49,66,0.28)"/>
<rect x="122.8" y="432.0" width="11.6" height="8.0" fill="rgba(45,49,66,0.28)"/>
<rect x="122.8" y="424.0" width="11.6" height="8.0" fill="rgba(45,49,66,0.28)"/>
<rect x="122.8" y="416.0" width="11.6" height="8.0" fill="rgba(45,49,66,0.28)"/>
<rect x="134.4" y="440.0" width="11.6" height="8.0" fill="rgba(45,49,66,0.28)"/>
<rect x="134.4" y="432.0" width="11.6" height="8.0" fill="rgba(45,49,66,0.28)"/>
<rect x="134.4" y="424.0" width="11.6" height="8.0" fill="rgba(45,49,66,0.28)"/>
<rect x="134.4" y="416.0" width="11.6" height="8.0" fill="rgba(45,49,66,0.28)"/>
<rect x="146.0" y="440.0" width="11.6" height="8.0" fill="rgba(45,49,66,0.28)"/>
<rect x="146.0" y="432.0" width="11.6" height="8.0" fill="rgba(45,49,66,0.28)"/>
<rect x="146.0" y="424.0" width="11.6" height="8.0" fill="rgba(45,49,66,0.28)"/>
<rect x="146.0" y="416.0" width="11.6" height="8.0" fill="rgba(45,49,66,0.28)"/>
<rect x="157.6" y="440.0" width="11.6" height="8.0" fill="rgba(45,49,66,0.28)"/>
<rect x="157.6" y="432.0" width="11.6" height="8.0" fill="rgba(45,49,66,0.28)"/>
<rect x="157.6" y="424.0" width="11.6" height="8.0" fill="rgba(45,49,66,0.28)"/>
<rect x="157.6" y="416.0" width="11.6" height="8.0" fill="rgba(45,49,66,0.28)"/>
<rect x="169.2" y="440.0" width="11.6" height="8.0" fill="rgba(45,49,66,0.28)"/>
<rect x="169.2" y="432.0" width="11.6" height="8.0" fill="rgba(45,49,66,0.28)"/>
<rect x="169.2" y="424.0" width="11.6" height="8.0" fill="rgba(45,49,66,0.28)"/>
<rect x="180.8" y="440.0" width="11.6" height="8.0" fill="rgba(45,49,66,0.28)"/>
<rect x="180.8" y="432.0" width="11.6" height="8.0" fill="rgba(45,49,66,0.28)"/>
<rect x="180.8" y="424.0" width="11.6" height="8.0" fill="rgba(45,49,66,0.28)"/>
<rect x="192.4" y="440.0" width="11.6" height="8.0" fill="rgba(45,49,66,0.28)"/>
<rect x="192.4" y="432.0" width="11.6" height="8.0" fill="rgba(45,49,66,0.28)"/>
<rect x="204.0" y="440.0" width="11.6" height="8.0" fill="rgba(45,49,66,0.28)"/>
<rect x="204.0" y="432.0" width="11.6" height="8.0" fill="rgba(45,49,66,0.28)"/>
<rect x="215.6" y="440.0" width="11.6" height="8.0" fill="rgba(45,49,66,0.28)"/>
<rect x="215.6" y="432.0" width="11.6" height="8.0" fill="rgba(45,49,66,0.28)"/>
<rect x="227.2" y="440.0" width="11.6" height="8.0" fill="rgba(45,49,66,0.28)"/>
<rect x="238.8" y="440.0" width="11.6" height="8.0" fill="rgba(45,49,66,0.28)"/>
<rect x="250.4" y="440.0" width="11.6" height="8.0" fill="rgba(45,49,66,0.28)"/>
<rect x="262.0" y="440.0" width="11.6" height="8.0" fill="rgba(45,49,66,0.28)"/>
<rect x="273.6" y="440.0" width="11.6" height="8.0" fill="rgba(45,49,66,0.28)"/>
<rect x="285.2" y="440.0" width="11.6" height="8.0" fill="rgba(45,49,66,0.28)"/>
<rect x="296.8" y="440.0" width="11.6" height="8.0" fill="rgba(45,49,66,0.28)"/>
<rect x="296.8" y="432.0" width="11.6" height="8.0" fill="rgba(45,49,66,0.28)"/>
<rect x="308.4" y="440.0" width="11.6" height="8.0" fill="rgba(45,49,66,0.28)"/>
<rect x="308.4" y="432.0" width="11.6" height="8.0" fill="rgba(45,49,66,0.28)"/>
<rect x="308.4" y="424.0" width="11.6" height="8.0" fill="rgba(45,49,66,0.28)"/>
<circle cx="145.4" cy="427.0" r="4" fill="#f5f5f5"/><circle cx="145.4" cy="427.0" r="4" fill="rgba(235,108,54,0.15)" stroke="#eb6c36" stroke-width="1.2"/>
<circle cx="182.2" cy="422.7" r="4" fill="#f5f5f5"/><circle cx="182.2" cy="422.7" r="4" fill="rgba(235,108,54,0.15)" stroke="#eb6c36" stroke-width="1.2"/>
<circle cx="196.6" cy="424.4" r="4" fill="#f5f5f5"/><circle cx="196.6" cy="424.4" r="4" fill="rgba(235,108,54,0.15)" stroke="#eb6c36" stroke-width="1.2"/>
<circle cx="225.5" cy="435.2" r="4" fill="#f5f5f5"/><circle cx="225.5" cy="435.2" r="4" fill="rgba(235,108,54,0.15)" stroke="#eb6c36" stroke-width="1.2"/>
<circle cx="244.2" cy="436.1" r="4" fill="#f5f5f5"/><circle cx="244.2" cy="436.1" r="4" fill="rgba(235,108,54,0.15)" stroke="#eb6c36" stroke-width="1.2"/>
<text x="88" y="464" fill="#4f5d75" font-size="8" font-family="'Geist Mono', monospace" font-weight="400" text-anchor="start" >0.00</text>
<text x="320" y="464" fill="#4f5d75" font-size="8" font-family="'Geist Mono', monospace" font-weight="400" text-anchor="end" >growth 0.10</text>
<text x="84" y="448" fill="#4f5d75" font-size="8" font-family="'Geist Mono', monospace" font-weight="400" text-anchor="end" >1</text>
<text x="84" y="296" fill="#4f5d75" font-size="8" font-family="'Geist Mono', monospace" font-weight="400" text-anchor="end" >4</text>
<text x="84" y="368.0" fill="#4f5d75" font-size="8" font-family="'Geist Mono', monospace" font-weight="400" text-anchor="end" >elong.</text>
<text x="376" y="280" fill="#2d3142" font-size="12" font-family="'Geist', sans-serif" font-weight="600" text-anchor="start" >Ferguson · 52 elites, coverage 0.13</text>
<rect x="408" y="288" width="232" height="160" fill="none" stroke="rgba(45,49,66,0.10)"/>
<rect x="408.0" y="440.0" width="11.6" height="8.0" fill="rgba(45,49,66,0.28)"/>
<rect x="408.0" y="432.0" width="11.6" height="8.0" fill="rgba(45,49,66,0.28)"/>
<rect x="408.0" y="424.0" width="11.6" height="8.0" fill="rgba(45,49,66,0.28)"/>
<rect x="408.0" y="416.0" width="11.6" height="8.0" fill="rgba(45,49,66,0.28)"/>
<rect x="408.0" y="408.0" width="11.6" height="8.0" fill="rgba(45,49,66,0.28)"/>
<rect x="408.0" y="400.0" width="11.6" height="8.0" fill="rgba(45,49,66,0.28)"/>
<rect x="419.6" y="440.0" width="11.6" height="8.0" fill="rgba(45,49,66,0.28)"/>
<rect x="419.6" y="432.0" width="11.6" height="8.0" fill="rgba(45,49,66,0.28)"/>
<rect x="419.6" y="424.0" width="11.6" height="8.0" fill="rgba(45,49,66,0.28)"/>
<rect x="419.6" y="416.0" width="11.6" height="8.0" fill="rgba(45,49,66,0.28)"/>
<rect x="419.6" y="408.0" width="11.6" height="8.0" fill="rgba(45,49,66,0.28)"/>
<rect x="419.6" y="400.0" width="11.6" height="8.0" fill="rgba(45,49,66,0.28)"/>
<rect x="419.6" y="384.0" width="11.6" height="8.0" fill="rgba(45,49,66,0.28)"/>
<rect x="431.2" y="440.0" width="11.6" height="8.0" fill="rgba(45,49,66,0.28)"/>
<rect x="431.2" y="432.0" width="11.6" height="8.0" fill="rgba(45,49,66,0.28)"/>
<rect x="431.2" y="424.0" width="11.6" height="8.0" fill="rgba(45,49,66,0.28)"/>
<rect x="431.2" y="416.0" width="11.6" height="8.0" fill="rgba(45,49,66,0.28)"/>
<rect x="431.2" y="408.0" width="11.6" height="8.0" fill="rgba(45,49,66,0.28)"/>
<rect x="442.8" y="432.0" width="11.6" height="8.0" fill="rgba(45,49,66,0.28)"/>
<rect x="442.8" y="424.0" width="11.6" height="8.0" fill="rgba(45,49,66,0.28)"/>
<rect x="442.8" y="416.0" width="11.6" height="8.0" fill="rgba(45,49,66,0.28)"/>
<rect x="442.8" y="408.0" width="11.6" height="8.0" fill="rgba(45,49,66,0.28)"/>
<rect x="454.4" y="432.0" width="11.6" height="8.0" fill="rgba(45,49,66,0.28)"/>
<rect x="454.4" y="424.0" width="11.6" height="8.0" fill="rgba(45,49,66,0.28)"/>
<rect x="454.4" y="416.0" width="11.6" height="8.0" fill="rgba(45,49,66,0.28)"/>
<rect x="466.0" y="432.0" width="11.6" height="8.0" fill="rgba(45,49,66,0.28)"/>
<rect x="466.0" y="424.0" width="11.6" height="8.0" fill="rgba(45,49,66,0.28)"/>
<rect x="477.6" y="432.0" width="11.6" height="8.0" fill="rgba(45,49,66,0.28)"/>
<rect x="477.6" y="424.0" width="11.6" height="8.0" fill="rgba(45,49,66,0.28)"/>
<rect x="477.6" y="416.0" width="11.6" height="8.0" fill="rgba(45,49,66,0.28)"/>
<rect x="489.2" y="432.0" width="11.6" height="8.0" fill="rgba(45,49,66,0.28)"/>
<rect x="489.2" y="424.0" width="11.6" height="8.0" fill="rgba(45,49,66,0.28)"/>
<rect x="489.2" y="416.0" width="11.6" height="8.0" fill="rgba(45,49,66,0.28)"/>
<rect x="500.8" y="432.0" width="11.6" height="8.0" fill="rgba(45,49,66,0.28)"/>
<rect x="500.8" y="424.0" width="11.6" height="8.0" fill="rgba(45,49,66,0.28)"/>
<rect x="512.4" y="432.0" width="11.6" height="8.0" fill="rgba(45,49,66,0.28)"/>
<rect x="512.4" y="424.0" width="11.6" height="8.0" fill="rgba(45,49,66,0.28)"/>
<rect x="524.0" y="432.0" width="11.6" height="8.0" fill="rgba(45,49,66,0.28)"/>
<rect x="524.0" y="424.0" width="11.6" height="8.0" fill="rgba(45,49,66,0.28)"/>
<rect x="535.6" y="432.0" width="11.6" height="8.0" fill="rgba(45,49,66,0.28)"/>
<rect x="535.6" y="424.0" width="11.6" height="8.0" fill="rgba(45,49,66,0.28)"/>
<rect x="547.2" y="432.0" width="11.6" height="8.0" fill="rgba(45,49,66,0.28)"/>
<rect x="547.2" y="424.0" width="11.6" height="8.0" fill="rgba(45,49,66,0.28)"/>
<rect x="558.8" y="432.0" width="11.6" height="8.0" fill="rgba(45,49,66,0.28)"/>
<rect x="558.8" y="424.0" width="11.6" height="8.0" fill="rgba(45,49,66,0.28)"/>
<rect x="570.4" y="432.0" width="11.6" height="8.0" fill="rgba(45,49,66,0.28)"/>
<rect x="570.4" y="424.0" width="11.6" height="8.0" fill="rgba(45,49,66,0.28)"/>
<rect x="582.0" y="432.0" width="11.6" height="8.0" fill="rgba(45,49,66,0.28)"/>
<rect x="582.0" y="424.0" width="11.6" height="8.0" fill="rgba(45,49,66,0.28)"/>
<rect x="593.6" y="432.0" width="11.6" height="8.0" fill="rgba(45,49,66,0.28)"/>
<rect x="593.6" y="424.0" width="11.6" height="8.0" fill="rgba(45,49,66,0.28)"/>
<rect x="605.2" y="432.0" width="11.6" height="8.0" fill="rgba(45,49,66,0.28)"/>
<circle cx="452.7" cy="396.9" r="4" fill="#f5f5f5"/><circle cx="452.7" cy="396.9" r="4" fill="rgba(235,108,54,0.15)" stroke="#eb6c36" stroke-width="1.2"/>
<circle cx="514.5" cy="419.0" r="4" fill="#f5f5f5"/><circle cx="514.5" cy="419.0" r="4" fill="rgba(235,108,54,0.15)" stroke="#eb6c36" stroke-width="1.2"/>
<circle cx="546.1" cy="421.0" r="4" fill="#f5f5f5"/><circle cx="546.1" cy="421.0" r="4" fill="rgba(235,108,54,0.15)" stroke="#eb6c36" stroke-width="1.2"/>
<circle cx="569.0" cy="418.9" r="4" fill="#f5f5f5"/><circle cx="569.0" cy="418.9" r="4" fill="rgba(235,108,54,0.15)" stroke="#eb6c36" stroke-width="1.2"/>
<circle cx="592.8" cy="415.7" r="4" fill="#f5f5f5"/><circle cx="592.8" cy="415.7" r="4" fill="rgba(235,108,54,0.15)" stroke="#eb6c36" stroke-width="1.2"/>
<text x="408" y="464" fill="#4f5d75" font-size="8" font-family="'Geist Mono', monospace" font-weight="400" text-anchor="start" >0.00</text>
<text x="640" y="464" fill="#4f5d75" font-size="8" font-family="'Geist Mono', monospace" font-weight="400" text-anchor="end" >growth 0.10</text>
<text x="404" y="448" fill="#4f5d75" font-size="8" font-family="'Geist Mono', monospace" font-weight="400" text-anchor="end" >1</text>
<text x="404" y="296" fill="#4f5d75" font-size="8" font-family="'Geist Mono', monospace" font-weight="400" text-anchor="end" >4</text>
<text x="404" y="368.0" fill="#4f5d75" font-size="8" font-family="'Geist Mono', monospace" font-weight="400" text-anchor="end" >elong.</text>
<text x="696" y="280" fill="#2d3142" font-size="12" font-family="'Geist', sans-serif" font-weight="600" text-anchor="start" >Pier · 34 elites, coverage 0.09</text>
<rect x="728" y="288" width="232" height="160" fill="none" stroke="rgba(45,49,66,0.10)"/>
<rect x="786.0" y="432.0" width="11.6" height="8.0" fill="rgba(45,49,66,0.28)"/>
<rect x="786.0" y="424.0" width="11.6" height="8.0" fill="rgba(45,49,66,0.28)"/>
<rect x="797.6" y="432.0" width="11.6" height="8.0" fill="rgba(45,49,66,0.28)"/>
<rect x="797.6" y="424.0" width="11.6" height="8.0" fill="rgba(45,49,66,0.28)"/>
<rect x="809.2" y="432.0" width="11.6" height="8.0" fill="rgba(45,49,66,0.28)"/>
<rect x="809.2" y="424.0" width="11.6" height="8.0" fill="rgba(45,49,66,0.28)"/>
<rect x="820.8" y="432.0" width="11.6" height="8.0" fill="rgba(45,49,66,0.28)"/>
<rect x="820.8" y="424.0" width="11.6" height="8.0" fill="rgba(45,49,66,0.28)"/>
<rect x="832.4" y="432.0" width="11.6" height="8.0" fill="rgba(45,49,66,0.28)"/>
<rect x="832.4" y="424.0" width="11.6" height="8.0" fill="rgba(45,49,66,0.28)"/>
<rect x="844.0" y="440.0" width="11.6" height="8.0" fill="rgba(45,49,66,0.28)"/>
<rect x="844.0" y="432.0" width="11.6" height="8.0" fill="rgba(45,49,66,0.28)"/>
<rect x="844.0" y="424.0" width="11.6" height="8.0" fill="rgba(45,49,66,0.28)"/>
<rect x="855.6" y="440.0" width="11.6" height="8.0" fill="rgba(45,49,66,0.28)"/>
<rect x="855.6" y="432.0" width="11.6" height="8.0" fill="rgba(45,49,66,0.28)"/>
<rect x="855.6" y="424.0" width="11.6" height="8.0" fill="rgba(45,49,66,0.28)"/>
<rect x="867.2" y="440.0" width="11.6" height="8.0" fill="rgba(45,49,66,0.28)"/>
<rect x="867.2" y="432.0" width="11.6" height="8.0" fill="rgba(45,49,66,0.28)"/>
<rect x="867.2" y="424.0" width="11.6" height="8.0" fill="rgba(45,49,66,0.28)"/>
<rect x="878.8" y="440.0" width="11.6" height="8.0" fill="rgba(45,49,66,0.28)"/>
<rect x="878.8" y="432.0" width="11.6" height="8.0" fill="rgba(45,49,66,0.28)"/>
<rect x="878.8" y="424.0" width="11.6" height="8.0" fill="rgba(45,49,66,0.28)"/>
<rect x="890.4" y="440.0" width="11.6" height="8.0" fill="rgba(45,49,66,0.28)"/>
<rect x="890.4" y="432.0" width="11.6" height="8.0" fill="rgba(45,49,66,0.28)"/>
<rect x="902.0" y="440.0" width="11.6" height="8.0" fill="rgba(45,49,66,0.28)"/>
<rect x="902.0" y="432.0" width="11.6" height="8.0" fill="rgba(45,49,66,0.28)"/>
<rect x="913.6" y="440.0" width="11.6" height="8.0" fill="rgba(45,49,66,0.28)"/>
<rect x="913.6" y="432.0" width="11.6" height="8.0" fill="rgba(45,49,66,0.28)"/>
<rect x="925.2" y="440.0" width="11.6" height="8.0" fill="rgba(45,49,66,0.28)"/>
<rect x="925.2" y="432.0" width="11.6" height="8.0" fill="rgba(45,49,66,0.28)"/>
<rect x="936.8" y="440.0" width="11.6" height="8.0" fill="rgba(45,49,66,0.28)"/>
<rect x="936.8" y="432.0" width="11.6" height="8.0" fill="rgba(45,49,66,0.28)"/>
<rect x="948.4" y="440.0" width="11.6" height="8.0" fill="rgba(45,49,66,0.28)"/>
<rect x="948.4" y="432.0" width="11.6" height="8.0" fill="rgba(45,49,66,0.28)"/>
<circle cx="766.9" cy="418.7" r="4" fill="#f5f5f5"/><circle cx="766.9" cy="418.7" r="4" fill="rgba(235,108,54,0.15)" stroke="#eb6c36" stroke-width="1.2"/>
<circle cx="805.7" cy="412.1" r="4" fill="#f5f5f5"/><circle cx="805.7" cy="412.1" r="4" fill="rgba(235,108,54,0.15)" stroke="#eb6c36" stroke-width="1.2"/>
<circle cx="887.5" cy="424.7" r="4" fill="#f5f5f5"/><circle cx="887.5" cy="424.7" r="4" fill="rgba(235,108,54,0.15)" stroke="#eb6c36" stroke-width="1.2"/>
<circle cx="936.8" cy="425.2" r="4" fill="#f5f5f5"/><circle cx="936.8" cy="425.2" r="4" fill="rgba(235,108,54,0.15)" stroke="#eb6c36" stroke-width="1.2"/>
<circle cx="960.0" cy="424.0" r="4" fill="#f5f5f5"/><circle cx="960.0" cy="424.0" r="4" fill="rgba(235,108,54,0.15)" stroke="#eb6c36" stroke-width="1.2"/>
<text x="728" y="464" fill="#4f5d75" font-size="8" font-family="'Geist Mono', monospace" font-weight="400" text-anchor="start" >0.00</text>
<text x="960" y="464" fill="#4f5d75" font-size="8" font-family="'Geist Mono', monospace" font-weight="400" text-anchor="end" >growth 0.10</text>
<text x="724" y="448" fill="#4f5d75" font-size="8" font-family="'Geist Mono', monospace" font-weight="400" text-anchor="end" >1</text>
<text x="724" y="296" fill="#4f5d75" font-size="8" font-family="'Geist Mono', monospace" font-weight="400" text-anchor="end" >4</text>
<text x="724" y="368.0" fill="#4f5d75" font-size="8" font-family="'Geist Mono', monospace" font-weight="400" text-anchor="end" >elong.</text>
<line x1="32" y1="524" x2="968" y2="524" stroke="rgba(45,49,66,0.10)" stroke-width="0.8"/>
<text x="32" y="540" fill="#4f5d75" font-size="8" font-family="'Geist Mono', monospace" font-weight="400" text-anchor="start" letter-spacing="0.14em">LEGEND</text>
<rect x="112" y="530" width="16" height="12" fill="rgba(45,49,66,0.28)"/>
<text x="132" y="540" fill="#4f5d75" font-size="8" font-family="'Geist Mono', monospace" font-weight="400" text-anchor="start" >a knob setting the model can produce (archive cell)</text>
<circle cx="525" cy="536" r="4" fill="rgba(235,108,54,0.15)" stroke="#eb6c36" stroke-width="1.2"/>
<text x="537" y="540" fill="#4f5d75" font-size="8" font-family="'Geist Mono', monospace" font-weight="400" text-anchor="start" >the observed fire, one dot per day</text>
</svg>
